<svg xmlns="http://www.w3.org/2000/svg" width="18" height="18"><path fill="#111756" d="M9 .023c4.972 0 9 4.028 9 9s-4.028 9-9 9-9-4.028-9-9 4.028-9 9-9zm0 1.742c-4.01 0-7.258 3.248-7.258 7.258S4.99 16.28 9 16.28s7.258-3.248 7.258-7.258S13.01 1.765 9 1.765zm2.874 3.563l.821.82c.17.17.17.447 0 .617l-2.258 2.258 2.258 2.258a.438.438 0 01.056.548l-.056.068-.821.821a.436.436 0 01-.616 0L9 10.46l-2.258 2.258a.436.436 0 01-.616 0l-.821-.821a.436.436 0 010-.616l2.258-2.258-2.258-2.258a.438.438 0 01-.056-.548l.056-.068.821-.821c.17-.17.446-.17.616 0L9 7.586l2.258-2.258c.17-.17.447-.17.616 0z"/></svg>